<svg xmlns="http://www.w3.org/2000/svg" width="512" height="1024" viewBox="0 0 512 1024" shape-rendering="crispEdges">
<rect width="512" height="1024" fill="none"/>
<ellipse cx="64" cy="105" rx="27" ry="8" fill="rgba(0, 0, 0, 0.35)" opacity="1"/><rect x="56" y="78" width="8" height="24" fill="#53575f"/><rect x="64" y="78" width="8" height="24" fill="#53575f"/><rect x="54" y="99" width="13" height="5" fill="#202329"/><rect x="62" y="99" width="13" height="5" fill="#202329"/><polygon points="52,78 48,56 57,47 73,47 80,56 76,78" fill="#777b82"/><polygon points="59,52 70,50 73,74 61,76" fill="#a5a8ad"/><rect x="60" y="56" width="3" height="20" fill="#30333a"/><rect x="68" y="65" width="10" height="2" fill="#30333a"/><rect x="45" y="53" width="9" height="25" fill="#53575f"/><rect x="78" y="54" width="9" height="25" fill="#53575f"/><rect x="43" y="50" width="12" height="9" fill="#a5a8ad"/><rect x="77" y="50" width="12" height="9" fill="#a5a8ad"/><polygon points="84,91 88,91 90,28 86,28" fill="#6a523b"/><polygon points="88,15 96,28 80,28" fill="#c7ccd5"/><rect x="84" y="28" width="7" height="4" fill="#33373f"/><rect x="58" y="32" width="13" height="15" fill="#53575f"/><rect x="60" y="34" width="9" height="10" fill="#a5a8ad"/><ellipse cx="61" cy="39" rx="3" ry="3" fill="rgba(255, 52, 52, 0.35)" opacity="0.72"/><ellipse cx="67" cy="39" rx="3" ry="3" fill="rgba(255, 52, 52, 0.35)" opacity="0.72"/><rect x="60" y="38" width="3" height="3" fill="#ff3434"/><rect x="67" y="38" width="3" height="3" fill="#ff3434"/>
<ellipse cx="196" cy="105" rx="27" ry="8" fill="rgba(0, 0, 0, 0.35)" opacity="1"/><rect x="185" y="80" width="8" height="24" fill="#53575f"/><rect x="193" y="80" width="8" height="24" fill="#53575f"/><rect x="182" y="101" width="13" height="5" fill="#202329"/><rect x="190" y="101" width="13" height="5" fill="#202329"/><polygon points="184,80 180,58 189,49 205,49 212,58 208,80" fill="#777b82"/><polygon points="191,54 202,52 205,76 193,78" fill="#a5a8ad"/><rect x="192" y="58" width="3" height="20" fill="#30333a"/><rect x="200" y="67" width="10" height="2" fill="#30333a"/><rect x="177" y="55" width="9" height="25" fill="#53575f"/><rect x="210" y="56" width="9" height="25" fill="#53575f"/><rect x="175" y="52" width="12" height="9" fill="#a5a8ad"/><rect x="209" y="52" width="12" height="9" fill="#a5a8ad"/><polygon points="216,93 220,93 222,30 218,30" fill="#6a523b"/><polygon points="220,17 228,30 212,30" fill="#c7ccd5"/><rect x="216" y="30" width="7" height="4" fill="#33373f"/><rect x="190" y="34" width="13" height="15" fill="#53575f"/><rect x="192" y="36" width="9" height="10" fill="#a5a8ad"/><ellipse cx="193" cy="41" rx="3" ry="3" fill="rgba(255, 52, 52, 0.35)" opacity="0.72"/><ellipse cx="199" cy="41" rx="3" ry="3" fill="rgba(255, 52, 52, 0.35)" opacity="0.72"/><rect x="192" y="40" width="3" height="3" fill="#ff3434"/><rect x="199" y="40" width="3" height="3" fill="#ff3434"/><rect x="180" y="28" width="6" height="3" fill="#d7dade"/><rect x="211" y="52" width="4" height="4" fill="#d7dade"/>
<ellipse cx="324" cy="105" rx="27" ry="8" fill="rgba(0, 0, 0, 0.35)" opacity="1"/><rect x="313" y="78" width="8" height="24" fill="#53575f"/><rect x="321" y="78" width="8" height="24" fill="#53575f"/><rect x="310" y="99" width="13" height="5" fill="#202329"/><rect x="318" y="99" width="13" height="5" fill="#202329"/><polygon points="312,78 308,56 317,47 333,47 340,56 336,78" fill="#777b82"/><polygon points="319,52 330,50 333,74 321,76" fill="#a5a8ad"/><rect x="320" y="56" width="3" height="20" fill="#30333a"/><rect x="328" y="65" width="10" height="2" fill="#30333a"/><rect x="305" y="53" width="9" height="25" fill="#53575f"/><rect x="338" y="54" width="9" height="25" fill="#53575f"/><rect x="303" y="50" width="12" height="9" fill="#a5a8ad"/><rect x="337" y="50" width="12" height="9" fill="#a5a8ad"/><polygon points="344,91 348,91 350,28 346,28" fill="#6a523b"/><polygon points="348,15 356,28 340,28" fill="#c7ccd5"/><rect x="344" y="28" width="7" height="4" fill="#33373f"/><rect x="318" y="32" width="13" height="15" fill="#53575f"/><rect x="320" y="34" width="9" height="10" fill="#a5a8ad"/><ellipse cx="321" cy="39" rx="3" ry="3" fill="rgba(255, 52, 52, 0.35)" opacity="0.72"/><ellipse cx="327" cy="39" rx="3" ry="3" fill="rgba(255, 52, 52, 0.35)" opacity="0.72"/><rect x="320" y="38" width="3" height="3" fill="#ff3434"/><rect x="327" y="38" width="3" height="3" fill="#ff3434"/><rect x="308" y="26" width="6" height="3" fill="#d7dade"/><rect x="339" y="50" width="4" height="4" fill="#d7dade"/>
<ellipse cx="452" cy="105" rx="27" ry="8" fill="rgba(0, 0, 0, 0.35)" opacity="1"/><rect x="441" y="80" width="8" height="24" fill="#53575f"/><rect x="449" y="80" width="8" height="24" fill="#53575f"/><rect x="438" y="101" width="13" height="5" fill="#202329"/><rect x="446" y="101" width="13" height="5" fill="#202329"/><polygon points="440,80 436,58 445,49 461,49 468,58 464,80" fill="#777b82"/><polygon points="447,54 458,52 461,76 449,78" fill="#a5a8ad"/><rect x="448" y="58" width="3" height="20" fill="#30333a"/><rect x="456" y="67" width="10" height="2" fill="#30333a"/><rect x="433" y="55" width="9" height="25" fill="#53575f"/><rect x="466" y="56" width="9" height="25" fill="#53575f"/><rect x="431" y="52" width="12" height="9" fill="#a5a8ad"/><rect x="465" y="52" width="12" height="9" fill="#a5a8ad"/><polygon points="472,93 476,93 478,30 474,30" fill="#6a523b"/><polygon points="476,17 484,30 468,30" fill="#c7ccd5"/><rect x="472" y="30" width="7" height="4" fill="#33373f"/><rect x="446" y="34" width="13" height="15" fill="#53575f"/><rect x="448" y="36" width="9" height="10" fill="#a5a8ad"/><ellipse cx="449" cy="41" rx="3" ry="3" fill="rgba(255, 52, 52, 0.35)" opacity="0.72"/><ellipse cx="455" cy="41" rx="3" ry="3" fill="rgba(255, 52, 52, 0.35)" opacity="0.72"/><rect x="448" y="40" width="3" height="3" fill="#ff3434"/><rect x="455" y="40" width="3" height="3" fill="#ff3434"/><rect x="436" y="28" width="6" height="3" fill="#d7dade"/><rect x="467" y="52" width="4" height="4" fill="#d7dade"/>
<ellipse cx="64" cy="233" rx="27" ry="8" fill="rgba(0, 0, 0, 0.35)" opacity="1"/><rect x="56" y="206" width="8" height="24" fill="#53575f"/><rect x="64" y="206" width="8" height="24" fill="#53575f"/><rect x="54" y="227" width="13" height="5" fill="#202329"/><rect x="62" y="227" width="13" height="5" fill="#202329"/><polygon points="52,206 48,184 57,175 73,175 80,184 76,206" fill="#777b82"/><polygon points="59,180 70,178 73,202 61,204" fill="#a5a8ad"/><rect x="60" y="184" width="3" height="20" fill="#30333a"/><rect x="68" y="193" width="10" height="2" fill="#30333a"/><rect x="45" y="181" width="9" height="25" fill="#53575f"/><rect x="78" y="182" width="9" height="25" fill="#53575f"/><rect x="43" y="178" width="12" height="9" fill="#a5a8ad"/><rect x="77" y="178" width="12" height="9" fill="#a5a8ad"/><polygon points="84,223 88,223 90,156 86,156" fill="#6a523b"/><polygon points="88,143 96,156 80,156" fill="#c7ccd5"/><rect x="84" y="156" width="7" height="4" fill="#33373f"/><rect x="58" y="160" width="13" height="15" fill="#53575f"/><rect x="60" y="162" width="9" height="10" fill="#a5a8ad"/><ellipse cx="61" cy="167" rx="3" ry="3" fill="rgba(255, 52, 52, 0.35)" opacity="0.72"/><ellipse cx="67" cy="167" rx="3" ry="3" fill="rgba(255, 52, 52, 0.35)" opacity="0.72"/><rect x="60" y="166" width="3" height="3" fill="#ff3434"/><rect x="67" y="166" width="3" height="3" fill="#ff3434"/>
<ellipse cx="196" cy="233" rx="27" ry="8" fill="rgba(0, 0, 0, 0.35)" opacity="1"/><rect x="185" y="208" width="8" height="24" fill="#53575f"/><rect x="193" y="208" width="8" height="24" fill="#53575f"/><rect x="182" y="229" width="13" height="5" fill="#202329"/><rect x="190" y="229" width="13" height="5" fill="#202329"/><polygon points="184,208 180,186 189,177 205,177 212,186 208,208" fill="#777b82"/><polygon points="191,182 202,180 205,204 193,206" fill="#a5a8ad"/><rect x="192" y="186" width="3" height="20" fill="#30333a"/><rect x="200" y="195" width="10" height="2" fill="#30333a"/><rect x="177" y="183" width="9" height="25" fill="#53575f"/><rect x="210" y="184" width="9" height="25" fill="#53575f"/><rect x="175" y="180" width="12" height="9" fill="#a5a8ad"/><rect x="209" y="180" width="12" height="9" fill="#a5a8ad"/><polygon points="216,225 220,225 222,158 218,158" fill="#6a523b"/><polygon points="220,145 228,158 212,158" fill="#c7ccd5"/><rect x="216" y="158" width="7" height="4" fill="#33373f"/><rect x="190" y="162" width="13" height="15" fill="#53575f"/><rect x="192" y="164" width="9" height="10" fill="#a5a8ad"/><ellipse cx="193" cy="169" rx="3" ry="3" fill="rgba(255, 52, 52, 0.35)" opacity="0.72"/><ellipse cx="199" cy="169" rx="3" ry="3" fill="rgba(255, 52, 52, 0.35)" opacity="0.72"/><rect x="192" y="168" width="3" height="3" fill="#ff3434"/><rect x="199" y="168" width="3" height="3" fill="#ff3434"/><rect x="180" y="156" width="6" height="3" fill="#d7dade"/><rect x="211" y="180" width="4" height="4" fill="#d7dade"/>
<ellipse cx="324" cy="233" rx="27" ry="8" fill="rgba(0, 0, 0, 0.35)" opacity="1"/><rect x="313" y="206" width="8" height="24" fill="#53575f"/><rect x="321" y="206" width="8" height="24" fill="#53575f"/><rect x="310" y="227" width="13" height="5" fill="#202329"/><rect x="318" y="227" width="13" height="5" fill="#202329"/><polygon points="312,206 308,184 317,175 333,175 340,184 336,206" fill="#777b82"/><polygon points="319,180 330,178 333,202 321,204" fill="#a5a8ad"/><rect x="320" y="184" width="3" height="20" fill="#30333a"/><rect x="328" y="193" width="10" height="2" fill="#30333a"/><rect x="305" y="181" width="9" height="25" fill="#53575f"/><rect x="338" y="182" width="9" height="25" fill="#53575f"/><rect x="303" y="178" width="12" height="9" fill="#a5a8ad"/><rect x="337" y="178" width="12" height="9" fill="#a5a8ad"/><polygon points="344,223 348,223 350,156 346,156" fill="#6a523b"/><polygon points="348,143 356,156 340,156" fill="#c7ccd5"/><rect x="344" y="156" width="7" height="4" fill="#33373f"/><rect x="318" y="160" width="13" height="15" fill="#53575f"/><rect x="320" y="162" width="9" height="10" fill="#a5a8ad"/><ellipse cx="321" cy="167" rx="3" ry="3" fill="rgba(255, 52, 52, 0.35)" opacity="0.72"/><ellipse cx="327" cy="167" rx="3" ry="3" fill="rgba(255, 52, 52, 0.35)" opacity="0.72"/><rect x="320" y="166" width="3" height="3" fill="#ff3434"/><rect x="327" y="166" width="3" height="3" fill="#ff3434"/><rect x="308" y="154" width="6" height="3" fill="#d7dade"/><rect x="339" y="178" width="4" height="4" fill="#d7dade"/>
<ellipse cx="452" cy="233" rx="27" ry="8" fill="rgba(0, 0, 0, 0.35)" opacity="1"/><rect x="441" y="208" width="8" height="24" fill="#53575f"/><rect x="449" y="208" width="8" height="24" fill="#53575f"/><rect x="438" y="229" width="13" height="5" fill="#202329"/><rect x="446" y="229" width="13" height="5" fill="#202329"/><polygon points="440,208 436,186 445,177 461,177 468,186 464,208" fill="#777b82"/><polygon points="447,182 458,180 461,204 449,206" fill="#a5a8ad"/><rect x="448" y="186" width="3" height="20" fill="#30333a"/><rect x="456" y="195" width="10" height="2" fill="#30333a"/><rect x="433" y="183" width="9" height="25" fill="#53575f"/><rect x="466" y="184" width="9" height="25" fill="#53575f"/><rect x="431" y="180" width="12" height="9" fill="#a5a8ad"/><rect x="465" y="180" width="12" height="9" fill="#a5a8ad"/><polygon points="472,225 476,225 478,158 474,158" fill="#6a523b"/><polygon points="476,145 484,158 468,158" fill="#c7ccd5"/><rect x="472" y="158" width="7" height="4" fill="#33373f"/><rect x="446" y="162" width="13" height="15" fill="#53575f"/><rect x="448" y="164" width="9" height="10" fill="#a5a8ad"/><ellipse cx="449" cy="169" rx="3" ry="3" fill="rgba(255, 52, 52, 0.35)" opacity="0.72"/><ellipse cx="455" cy="169" rx="3" ry="3" fill="rgba(255, 52, 52, 0.35)" opacity="0.72"/><rect x="448" y="168" width="3" height="3" fill="#ff3434"/><rect x="455" y="168" width="3" height="3" fill="#ff3434"/><rect x="436" y="156" width="6" height="3" fill="#d7dade"/><rect x="467" y="180" width="4" height="4" fill="#d7dade"/>
<ellipse cx="64" cy="361" rx="27" ry="8" fill="rgba(0, 0, 0, 0.35)" opacity="1"/><rect x="56" y="334" width="8" height="24" fill="#53575f"/><rect x="64" y="334" width="8" height="24" fill="#53575f"/><rect x="54" y="355" width="13" height="5" fill="#202329"/><rect x="62" y="355" width="13" height="5" fill="#202329"/><polygon points="50,334 45,312 55,303 75,303 84,312 78,334" fill="#777b82"/><polygon points="59,308 72,306 75,330 61,332" fill="#a5a8ad"/><rect x="60" y="312" width="3" height="20" fill="#30333a"/><rect x="68" y="321" width="10" height="2" fill="#30333a"/><rect x="42" y="309" width="9" height="25" fill="#53575f"/><rect x="80" y="310" width="9" height="25" fill="#53575f"/><rect x="40" y="306" width="12" height="9" fill="#a5a8ad"/><rect x="80" y="306" width="12" height="9" fill="#a5a8ad"/><polygon points="84,351 88,351 90,284 86,284" fill="#6a523b"/><polygon points="88,271 96,284 80,284" fill="#c7ccd5"/><rect x="84" y="284" width="7" height="4" fill="#33373f"/><rect x="57" y="288" width="15" height="15" fill="#53575f"/><rect x="59" y="290" width="10" height="10" fill="#a5a8ad"/><ellipse cx="60" cy="295" rx="3" ry="3" fill="rgba(255, 52, 52, 0.35)" opacity="0.72"/><ellipse cx="68" cy="295" rx="3" ry="3" fill="rgba(255, 52, 52, 0.35)" opacity="0.72"/><rect x="59" y="294" width="3" height="3" fill="#ff3434"/><rect x="67" y="294" width="3" height="3" fill="#ff3434"/>
<ellipse cx="196" cy="361" rx="27" ry="8" fill="rgba(0, 0, 0, 0.35)" opacity="1"/><rect x="185" y="336" width="8" height="24" fill="#53575f"/><rect x="193" y="336" width="8" height="24" fill="#53575f"/><rect x="182" y="357" width="13" height="5" fill="#202329"/><rect x="190" y="357" width="13" height="5" fill="#202329"/><polygon points="182,336 177,314 187,305 207,305 216,314 210,336" fill="#777b82"/><polygon points="191,310 204,308 207,332 193,334" fill="#a5a8ad"/><rect x="192" y="314" width="3" height="20" fill="#30333a"/><rect x="200" y="323" width="10" height="2" fill="#30333a"/><rect x="174" y="311" width="9" height="25" fill="#53575f"/><rect x="212" y="312" width="9" height="25" fill="#53575f"/><rect x="172" y="308" width="12" height="9" fill="#a5a8ad"/><rect x="212" y="308" width="12" height="9" fill="#a5a8ad"/><polygon points="216,353 220,353 222,286 218,286" fill="#6a523b"/><polygon points="220,273 228,286 212,286" fill="#c7ccd5"/><rect x="216" y="286" width="7" height="4" fill="#33373f"/><rect x="189" y="290" width="15" height="15" fill="#53575f"/><rect x="191" y="292" width="10" height="10" fill="#a5a8ad"/><ellipse cx="192" cy="297" rx="3" ry="3" fill="rgba(255, 52, 52, 0.35)" opacity="0.72"/><ellipse cx="200" cy="297" rx="3" ry="3" fill="rgba(255, 52, 52, 0.35)" opacity="0.72"/><rect x="191" y="296" width="3" height="3" fill="#ff3434"/><rect x="199" y="296" width="3" height="3" fill="#ff3434"/><rect x="180" y="284" width="6" height="3" fill="#d7dade"/><rect x="211" y="308" width="4" height="4" fill="#d7dade"/>
<ellipse cx="324" cy="361" rx="27" ry="8" fill="rgba(0, 0, 0, 0.35)" opacity="1"/><rect x="313" y="334" width="8" height="24" fill="#53575f"/><rect x="321" y="334" width="8" height="24" fill="#53575f"/><rect x="310" y="355" width="13" height="5" fill="#202329"/><rect x="318" y="355" width="13" height="5" fill="#202329"/><polygon points="310,334 305,312 315,303 335,303 344,312 338,334" fill="#777b82"/><polygon points="319,308 332,306 335,330 321,332" fill="#a5a8ad"/><rect x="320" y="312" width="3" height="20" fill="#30333a"/><rect x="328" y="321" width="10" height="2" fill="#30333a"/><rect x="302" y="309" width="9" height="25" fill="#53575f"/><rect x="340" y="310" width="9" height="25" fill="#53575f"/><rect x="300" y="306" width="12" height="9" fill="#a5a8ad"/><rect x="340" y="306" width="12" height="9" fill="#a5a8ad"/><polygon points="344,351 348,351 350,284 346,284" fill="#6a523b"/><polygon points="348,271 356,284 340,284" fill="#c7ccd5"/><rect x="344" y="284" width="7" height="4" fill="#33373f"/><rect x="317" y="288" width="15" height="15" fill="#53575f"/><rect x="319" y="290" width="10" height="10" fill="#a5a8ad"/><ellipse cx="320" cy="295" rx="3" ry="3" fill="rgba(255, 52, 52, 0.35)" opacity="0.72"/><ellipse cx="328" cy="295" rx="3" ry="3" fill="rgba(255, 52, 52, 0.35)" opacity="0.72"/><rect x="319" y="294" width="3" height="3" fill="#ff3434"/><rect x="327" y="294" width="3" height="3" fill="#ff3434"/><rect x="308" y="282" width="6" height="3" fill="#d7dade"/><rect x="339" y="306" width="4" height="4" fill="#d7dade"/>
<ellipse cx="452" cy="361" rx="27" ry="8" fill="rgba(0, 0, 0, 0.35)" opacity="1"/><rect x="441" y="336" width="8" height="24" fill="#53575f"/><rect x="449" y="336" width="8" height="24" fill="#53575f"/><rect x="438" y="357" width="13" height="5" fill="#202329"/><rect x="446" y="357" width="13" height="5" fill="#202329"/><polygon points="438,336 433,314 443,305 463,305 472,314 466,336" fill="#777b82"/><polygon points="447,310 460,308 463,332 449,334" fill="#a5a8ad"/><rect x="448" y="314" width="3" height="20" fill="#30333a"/><rect x="456" y="323" width="10" height="2" fill="#30333a"/><rect x="430" y="311" width="9" height="25" fill="#53575f"/><rect x="468" y="312" width="9" height="25" fill="#53575f"/><rect x="428" y="308" width="12" height="9" fill="#a5a8ad"/><rect x="468" y="308" width="12" height="9" fill="#a5a8ad"/><polygon points="472,353 476,353 478,286 474,286" fill="#6a523b"/><polygon points="476,273 484,286 468,286" fill="#c7ccd5"/><rect x="472" y="286" width="7" height="4" fill="#33373f"/><rect x="445" y="290" width="15" height="15" fill="#53575f"/><rect x="447" y="292" width="10" height="10" fill="#a5a8ad"/><ellipse cx="448" cy="297" rx="3" ry="3" fill="rgba(255, 52, 52, 0.35)" opacity="0.72"/><ellipse cx="456" cy="297" rx="3" ry="3" fill="rgba(255, 52, 52, 0.35)" opacity="0.72"/><rect x="447" y="296" width="3" height="3" fill="#ff3434"/><rect x="455" y="296" width="3" height="3" fill="#ff3434"/><rect x="436" y="284" width="6" height="3" fill="#d7dade"/><rect x="467" y="308" width="4" height="4" fill="#d7dade"/>
<ellipse cx="64" cy="489" rx="27" ry="8" fill="rgba(0, 0, 0, 0.35)" opacity="1"/><rect x="56" y="462" width="8" height="24" fill="#53575f"/><rect x="64" y="462" width="8" height="24" fill="#53575f"/><rect x="54" y="483" width="13" height="5" fill="#202329"/><rect x="62" y="483" width="13" height="5" fill="#202329"/><polygon points="52,462 48,440 57,431 73,431 80,440 76,462" fill="#777b82"/><polygon points="59,436 70,434 73,458 61,460" fill="#a5a8ad"/><rect x="60" y="440" width="3" height="20" fill="#30333a"/><rect x="68" y="449" width="10" height="2" fill="#30333a"/><rect x="45" y="437" width="9" height="25" fill="#53575f"/><rect x="78" y="438" width="9" height="25" fill="#53575f"/><rect x="43" y="434" width="12" height="9" fill="#a5a8ad"/><rect x="77" y="434" width="12" height="9" fill="#a5a8ad"/><polygon points="40,479 44,479 46,412 42,412" fill="#6a523b"/><polygon points="44,399 52,412 36,412" fill="#c7ccd5"/><rect x="40" y="412" width="7" height="4" fill="#33373f"/><rect x="58" y="416" width="13" height="15" fill="#53575f"/><rect x="60" y="418" width="9" height="10" fill="#a5a8ad"/><ellipse cx="61" cy="423" rx="3" ry="3" fill="rgba(255, 52, 52, 0.35)" opacity="0.72"/><ellipse cx="67" cy="423" rx="3" ry="3" fill="rgba(255, 52, 52, 0.35)" opacity="0.72"/><rect x="60" y="422" width="3" height="3" fill="#ff3434"/><rect x="67" y="422" width="3" height="3" fill="#ff3434"/>
<ellipse cx="188" cy="489" rx="27" ry="8" fill="rgba(0, 0, 0, 0.35)" opacity="1"/><rect x="183" y="464" width="8" height="24" fill="#53575f"/><rect x="191" y="464" width="8" height="24" fill="#53575f"/><rect x="182" y="485" width="13" height="5" fill="#202329"/><rect x="190" y="485" width="13" height="5" fill="#202329"/><polygon points="176,464 172,442 181,433 197,433 204,442 200,464" fill="#777b82"/><polygon points="183,438 194,436 197,460 185,462" fill="#a5a8ad"/><rect x="184" y="442" width="3" height="20" fill="#30333a"/><rect x="192" y="451" width="10" height="2" fill="#30333a"/><rect x="169" y="439" width="9" height="25" fill="#53575f"/><rect x="202" y="440" width="9" height="25" fill="#53575f"/><rect x="167" y="436" width="12" height="9" fill="#a5a8ad"/><rect x="201" y="436" width="12" height="9" fill="#a5a8ad"/><polygon points="164,481 168,481 170,414 166,414" fill="#6a523b"/><polygon points="168,401 176,414 160,414" fill="#c7ccd5"/><rect x="164" y="414" width="7" height="4" fill="#33373f"/><rect x="182" y="418" width="13" height="15" fill="#53575f"/><rect x="184" y="420" width="9" height="10" fill="#a5a8ad"/><ellipse cx="185" cy="425" rx="3" ry="3" fill="rgba(255, 52, 52, 0.35)" opacity="0.72"/><ellipse cx="191" cy="425" rx="3" ry="3" fill="rgba(255, 52, 52, 0.35)" opacity="0.72"/><rect x="184" y="424" width="3" height="3" fill="#ff3434"/><rect x="191" y="424" width="3" height="3" fill="#ff3434"/><rect x="172" y="412" width="6" height="3" fill="#d7dade"/><rect x="203" y="436" width="4" height="4" fill="#d7dade"/>
<ellipse cx="316" cy="489" rx="27" ry="8" fill="rgba(0, 0, 0, 0.35)" opacity="1"/><rect x="311" y="462" width="8" height="24" fill="#53575f"/><rect x="319" y="462" width="8" height="24" fill="#53575f"/><rect x="310" y="483" width="13" height="5" fill="#202329"/><rect x="318" y="483" width="13" height="5" fill="#202329"/><polygon points="304,462 300,440 309,431 325,431 332,440 328,462" fill="#777b82"/><polygon points="311,436 322,434 325,458 313,460" fill="#a5a8ad"/><rect x="312" y="440" width="3" height="20" fill="#30333a"/><rect x="320" y="449" width="10" height="2" fill="#30333a"/><rect x="297" y="437" width="9" height="25" fill="#53575f"/><rect x="330" y="438" width="9" height="25" fill="#53575f"/><rect x="295" y="434" width="12" height="9" fill="#a5a8ad"/><rect x="329" y="434" width="12" height="9" fill="#a5a8ad"/><polygon points="292,479 296,479 298,412 294,412" fill="#6a523b"/><polygon points="296,399 304,412 288,412" fill="#c7ccd5"/><rect x="292" y="412" width="7" height="4" fill="#33373f"/><rect x="310" y="416" width="13" height="15" fill="#53575f"/><rect x="312" y="418" width="9" height="10" fill="#a5a8ad"/><ellipse cx="313" cy="423" rx="3" ry="3" fill="rgba(255, 52, 52, 0.35)" opacity="0.72"/><ellipse cx="319" cy="423" rx="3" ry="3" fill="rgba(255, 52, 52, 0.35)" opacity="0.72"/><rect x="312" y="422" width="3" height="3" fill="#ff3434"/><rect x="319" y="422" width="3" height="3" fill="#ff3434"/><rect x="300" y="410" width="6" height="3" fill="#d7dade"/><rect x="331" y="434" width="4" height="4" fill="#d7dade"/>
<ellipse cx="444" cy="489" rx="27" ry="8" fill="rgba(0, 0, 0, 0.35)" opacity="1"/><rect x="439" y="464" width="8" height="24" fill="#53575f"/><rect x="447" y="464" width="8" height="24" fill="#53575f"/><rect x="438" y="485" width="13" height="5" fill="#202329"/><rect x="446" y="485" width="13" height="5" fill="#202329"/><polygon points="432,464 428,442 437,433 453,433 460,442 456,464" fill="#777b82"/><polygon points="439,438 450,436 453,460 441,462" fill="#a5a8ad"/><rect x="440" y="442" width="3" height="20" fill="#30333a"/><rect x="448" y="451" width="10" height="2" fill="#30333a"/><rect x="425" y="439" width="9" height="25" fill="#53575f"/><rect x="458" y="440" width="9" height="25" fill="#53575f"/><rect x="423" y="436" width="12" height="9" fill="#a5a8ad"/><rect x="457" y="436" width="12" height="9" fill="#a5a8ad"/><polygon points="420,481 424,481 426,414 422,414" fill="#6a523b"/><polygon points="424,401 432,414 416,414" fill="#c7ccd5"/><rect x="420" y="414" width="7" height="4" fill="#33373f"/><rect x="438" y="418" width="13" height="15" fill="#53575f"/><rect x="440" y="420" width="9" height="10" fill="#a5a8ad"/><ellipse cx="441" cy="425" rx="3" ry="3" fill="rgba(255, 52, 52, 0.35)" opacity="0.72"/><ellipse cx="447" cy="425" rx="3" ry="3" fill="rgba(255, 52, 52, 0.35)" opacity="0.72"/><rect x="440" y="424" width="3" height="3" fill="#ff3434"/><rect x="447" y="424" width="3" height="3" fill="#ff3434"/><rect x="428" y="412" width="6" height="3" fill="#d7dade"/><rect x="459" y="436" width="4" height="4" fill="#d7dade"/>
<ellipse cx="64" cy="617" rx="27" ry="8" fill="rgba(0, 0, 0, 0.35)" opacity="1"/><rect x="56" y="590" width="8" height="24" fill="#53575f"/><rect x="64" y="590" width="8" height="24" fill="#53575f"/><rect x="54" y="611" width="13" height="5" fill="#202329"/><rect x="62" y="611" width="13" height="5" fill="#202329"/><polygon points="52,590 48,568 57,559 73,559 80,568 76,590" fill="#777b82"/><polygon points="59,564 70,562 73,586 61,588" fill="#a5a8ad"/><rect x="60" y="568" width="3" height="20" fill="#30333a"/><rect x="68" y="577" width="10" height="2" fill="#30333a"/><rect x="45" y="565" width="9" height="25" fill="#53575f"/><rect x="78" y="566" width="9" height="25" fill="#53575f"/><rect x="43" y="562" width="12" height="9" fill="#a5a8ad"/><rect x="77" y="562" width="12" height="9" fill="#a5a8ad"/><polygon points="40,603 44,603 46,540 42,540" fill="#6a523b"/><polygon points="44,527 52,540 36,540" fill="#c7ccd5"/><rect x="40" y="540" width="7" height="4" fill="#33373f"/><rect x="58" y="544" width="13" height="15" fill="#53575f"/><rect x="60" y="546" width="9" height="10" fill="#a5a8ad"/><ellipse cx="61" cy="551" rx="3" ry="3" fill="rgba(255, 52, 52, 0.35)" opacity="0.72"/><ellipse cx="67" cy="551" rx="3" ry="3" fill="rgba(255, 52, 52, 0.35)" opacity="0.72"/><rect x="60" y="550" width="3" height="3" fill="#ff3434"/><rect x="67" y="550" width="3" height="3" fill="#ff3434"/>
<ellipse cx="188" cy="617" rx="27" ry="8" fill="rgba(0, 0, 0, 0.35)" opacity="1"/><rect x="183" y="592" width="8" height="24" fill="#53575f"/><rect x="191" y="592" width="8" height="24" fill="#53575f"/><rect x="182" y="613" width="13" height="5" fill="#202329"/><rect x="190" y="613" width="13" height="5" fill="#202329"/><polygon points="176,592 172,570 181,561 197,561 204,570 200,592" fill="#777b82"/><polygon points="183,566 194,564 197,588 185,590" fill="#a5a8ad"/><rect x="184" y="570" width="3" height="20" fill="#30333a"/><rect x="192" y="579" width="10" height="2" fill="#30333a"/><rect x="169" y="567" width="9" height="25" fill="#53575f"/><rect x="202" y="568" width="9" height="25" fill="#53575f"/><rect x="167" y="564" width="12" height="9" fill="#a5a8ad"/><rect x="201" y="564" width="12" height="9" fill="#a5a8ad"/><polygon points="164,605 168,605 170,542 166,542" fill="#6a523b"/><polygon points="168,529 176,542 160,542" fill="#c7ccd5"/><rect x="164" y="542" width="7" height="4" fill="#33373f"/><rect x="182" y="546" width="13" height="15" fill="#53575f"/><rect x="184" y="548" width="9" height="10" fill="#a5a8ad"/><ellipse cx="185" cy="553" rx="3" ry="3" fill="rgba(255, 52, 52, 0.35)" opacity="0.72"/><ellipse cx="191" cy="553" rx="3" ry="3" fill="rgba(255, 52, 52, 0.35)" opacity="0.72"/><rect x="184" y="552" width="3" height="3" fill="#ff3434"/><rect x="191" y="552" width="3" height="3" fill="#ff3434"/><rect x="172" y="540" width="6" height="3" fill="#d7dade"/><rect x="203" y="564" width="4" height="4" fill="#d7dade"/>
<ellipse cx="316" cy="617" rx="27" ry="8" fill="rgba(0, 0, 0, 0.35)" opacity="1"/><rect x="311" y="590" width="8" height="24" fill="#53575f"/><rect x="319" y="590" width="8" height="24" fill="#53575f"/><rect x="310" y="611" width="13" height="5" fill="#202329"/><rect x="318" y="611" width="13" height="5" fill="#202329"/><polygon points="304,590 300,568 309,559 325,559 332,568 328,590" fill="#777b82"/><polygon points="311,564 322,562 325,586 313,588" fill="#a5a8ad"/><rect x="312" y="568" width="3" height="20" fill="#30333a"/><rect x="320" y="577" width="10" height="2" fill="#30333a"/><rect x="297" y="565" width="9" height="25" fill="#53575f"/><rect x="330" y="566" width="9" height="25" fill="#53575f"/><rect x="295" y="562" width="12" height="9" fill="#a5a8ad"/><rect x="329" y="562" width="12" height="9" fill="#a5a8ad"/><polygon points="292,603 296,603 298,540 294,540" fill="#6a523b"/><polygon points="296,527 304,540 288,540" fill="#c7ccd5"/><rect x="292" y="540" width="7" height="4" fill="#33373f"/><rect x="310" y="544" width="13" height="15" fill="#53575f"/><rect x="312" y="546" width="9" height="10" fill="#a5a8ad"/><ellipse cx="313" cy="551" rx="3" ry="3" fill="rgba(255, 52, 52, 0.35)" opacity="0.72"/><ellipse cx="319" cy="551" rx="3" ry="3" fill="rgba(255, 52, 52, 0.35)" opacity="0.72"/><rect x="312" y="550" width="3" height="3" fill="#ff3434"/><rect x="319" y="550" width="3" height="3" fill="#ff3434"/><rect x="300" y="538" width="6" height="3" fill="#d7dade"/><rect x="331" y="562" width="4" height="4" fill="#d7dade"/>
<ellipse cx="444" cy="617" rx="27" ry="8" fill="rgba(0, 0, 0, 0.35)" opacity="1"/><rect x="439" y="592" width="8" height="24" fill="#53575f"/><rect x="447" y="592" width="8" height="24" fill="#53575f"/><rect x="438" y="613" width="13" height="5" fill="#202329"/><rect x="446" y="613" width="13" height="5" fill="#202329"/><polygon points="432,592 428,570 437,561 453,561 460,570 456,592" fill="#777b82"/><polygon points="439,566 450,564 453,588 441,590" fill="#a5a8ad"/><rect x="440" y="570" width="3" height="20" fill="#30333a"/><rect x="448" y="579" width="10" height="2" fill="#30333a"/><rect x="425" y="567" width="9" height="25" fill="#53575f"/><rect x="458" y="568" width="9" height="25" fill="#53575f"/><rect x="423" y="564" width="12" height="9" fill="#a5a8ad"/><rect x="457" y="564" width="12" height="9" fill="#a5a8ad"/><polygon points="420,605 424,605 426,542 422,542" fill="#6a523b"/><polygon points="424,529 432,542 416,542" fill="#c7ccd5"/><rect x="420" y="542" width="7" height="4" fill="#33373f"/><rect x="438" y="546" width="13" height="15" fill="#53575f"/><rect x="440" y="548" width="9" height="10" fill="#a5a8ad"/><ellipse cx="441" cy="553" rx="3" ry="3" fill="rgba(255, 52, 52, 0.35)" opacity="0.72"/><ellipse cx="447" cy="553" rx="3" ry="3" fill="rgba(255, 52, 52, 0.35)" opacity="0.72"/><rect x="440" y="552" width="3" height="3" fill="#ff3434"/><rect x="447" y="552" width="3" height="3" fill="#ff3434"/><rect x="428" y="540" width="6" height="3" fill="#d7dade"/><rect x="459" y="564" width="4" height="4" fill="#d7dade"/>
<ellipse cx="64" cy="745" rx="27" ry="8" fill="rgba(0, 0, 0, 0.35)" opacity="1"/><rect x="56" y="718" width="8" height="24" fill="#53575f"/><rect x="64" y="718" width="8" height="24" fill="#53575f"/><rect x="54" y="739" width="13" height="5" fill="#202329"/><rect x="62" y="739" width="13" height="5" fill="#202329"/><polygon points="52,718 48,696 57,687 73,687 80,696 76,718" fill="#777b82"/><polygon points="59,692 70,690 73,714 61,716" fill="#a5a8ad"/><rect x="60" y="696" width="3" height="20" fill="#30333a"/><rect x="68" y="705" width="10" height="2" fill="#30333a"/><rect x="45" y="693" width="9" height="25" fill="#53575f"/><rect x="78" y="694" width="9" height="25" fill="#53575f"/><rect x="43" y="690" width="12" height="9" fill="#a5a8ad"/><rect x="77" y="690" width="12" height="9" fill="#a5a8ad"/><polygon points="40,727 44,727 45,668 41,668" fill="#6a523b"/><polygon points="43,655 51,668 35,668" fill="#c7ccd5"/><rect x="39" y="668" width="7" height="4" fill="#33373f"/><rect x="58" y="672" width="13" height="15" fill="#53575f"/><rect x="60" y="674" width="9" height="10" fill="#a5a8ad"/>
<ellipse cx="188" cy="745" rx="27" ry="8" fill="rgba(0, 0, 0, 0.35)" opacity="1"/><rect x="183" y="720" width="8" height="24" fill="#53575f"/><rect x="191" y="720" width="8" height="24" fill="#53575f"/><rect x="182" y="741" width="13" height="5" fill="#202329"/><rect x="190" y="741" width="13" height="5" fill="#202329"/><polygon points="176,720 172,698 181,689 197,689 204,698 200,720" fill="#777b82"/><polygon points="183,694 194,692 197,716 185,718" fill="#a5a8ad"/><rect x="184" y="698" width="3" height="20" fill="#30333a"/><rect x="192" y="707" width="10" height="2" fill="#30333a"/><rect x="169" y="695" width="9" height="25" fill="#53575f"/><rect x="202" y="696" width="9" height="25" fill="#53575f"/><rect x="167" y="692" width="12" height="9" fill="#a5a8ad"/><rect x="201" y="692" width="12" height="9" fill="#a5a8ad"/><polygon points="164,729 168,729 169,670 165,670" fill="#6a523b"/><polygon points="167,657 175,670 159,670" fill="#c7ccd5"/><rect x="163" y="670" width="7" height="4" fill="#33373f"/><rect x="182" y="674" width="13" height="15" fill="#53575f"/><rect x="184" y="676" width="9" height="10" fill="#a5a8ad"/><rect x="172" y="668" width="6" height="3" fill="#d7dade"/><rect x="203" y="692" width="4" height="4" fill="#d7dade"/>
<ellipse cx="316" cy="745" rx="27" ry="8" fill="rgba(0, 0, 0, 0.35)" opacity="1"/><rect x="311" y="718" width="8" height="24" fill="#53575f"/><rect x="319" y="718" width="8" height="24" fill="#53575f"/><rect x="310" y="739" width="13" height="5" fill="#202329"/><rect x="318" y="739" width="13" height="5" fill="#202329"/><polygon points="304,718 300,696 309,687 325,687 332,696 328,718" fill="#777b82"/><polygon points="311,692 322,690 325,714 313,716" fill="#a5a8ad"/><rect x="312" y="696" width="3" height="20" fill="#30333a"/><rect x="320" y="705" width="10" height="2" fill="#30333a"/><rect x="297" y="693" width="9" height="25" fill="#53575f"/><rect x="330" y="694" width="9" height="25" fill="#53575f"/><rect x="295" y="690" width="12" height="9" fill="#a5a8ad"/><rect x="329" y="690" width="12" height="9" fill="#a5a8ad"/><polygon points="292,727 296,727 297,668 293,668" fill="#6a523b"/><polygon points="295,655 303,668 287,668" fill="#c7ccd5"/><rect x="291" y="668" width="7" height="4" fill="#33373f"/><rect x="310" y="672" width="13" height="15" fill="#53575f"/><rect x="312" y="674" width="9" height="10" fill="#a5a8ad"/><rect x="300" y="666" width="6" height="3" fill="#d7dade"/><rect x="331" y="690" width="4" height="4" fill="#d7dade"/>
<ellipse cx="444" cy="745" rx="27" ry="8" fill="rgba(0, 0, 0, 0.35)" opacity="1"/><rect x="439" y="720" width="8" height="24" fill="#53575f"/><rect x="447" y="720" width="8" height="24" fill="#53575f"/><rect x="438" y="741" width="13" height="5" fill="#202329"/><rect x="446" y="741" width="13" height="5" fill="#202329"/><polygon points="432,720 428,698 437,689 453,689 460,698 456,720" fill="#777b82"/><polygon points="439,694 450,692 453,716 441,718" fill="#a5a8ad"/><rect x="440" y="698" width="3" height="20" fill="#30333a"/><rect x="448" y="707" width="10" height="2" fill="#30333a"/><rect x="425" y="695" width="9" height="25" fill="#53575f"/><rect x="458" y="696" width="9" height="25" fill="#53575f"/><rect x="423" y="692" width="12" height="9" fill="#a5a8ad"/><rect x="457" y="692" width="12" height="9" fill="#a5a8ad"/><polygon points="420,729 424,729 425,670 421,670" fill="#6a523b"/><polygon points="423,657 431,670 415,670" fill="#c7ccd5"/><rect x="419" y="670" width="7" height="4" fill="#33373f"/><rect x="438" y="674" width="13" height="15" fill="#53575f"/><rect x="440" y="676" width="9" height="10" fill="#a5a8ad"/><rect x="428" y="668" width="6" height="3" fill="#d7dade"/><rect x="459" y="692" width="4" height="4" fill="#d7dade"/>
<ellipse cx="64" cy="873" rx="27" ry="8" fill="rgba(0, 0, 0, 0.35)" opacity="1"/><rect x="56" y="846" width="8" height="24" fill="#53575f"/><rect x="64" y="846" width="8" height="24" fill="#53575f"/><rect x="54" y="867" width="13" height="5" fill="#202329"/><rect x="62" y="867" width="13" height="5" fill="#202329"/><polygon points="50,846 45,824 55,815 75,815 84,824 78,846" fill="#777b82"/><polygon points="59,820 72,818 75,842 61,844" fill="#a5a8ad"/><rect x="60" y="824" width="3" height="20" fill="#30333a"/><rect x="68" y="833" width="10" height="2" fill="#30333a"/><rect x="42" y="821" width="9" height="25" fill="#53575f"/><rect x="80" y="822" width="9" height="25" fill="#53575f"/><rect x="40" y="818" width="12" height="9" fill="#a5a8ad"/><rect x="80" y="818" width="12" height="9" fill="#a5a8ad"/><polygon points="84,855 88,855 89,796 85,796" fill="#6a523b"/><polygon points="87,783 95,796 79,796" fill="#c7ccd5"/><rect x="83" y="796" width="7" height="4" fill="#33373f"/><rect x="57" y="800" width="15" height="15" fill="#53575f"/><rect x="59" y="802" width="10" height="10" fill="#a5a8ad"/>
<ellipse cx="196" cy="873" rx="27" ry="8" fill="rgba(0, 0, 0, 0.35)" opacity="1"/><rect x="185" y="848" width="8" height="24" fill="#53575f"/><rect x="193" y="848" width="8" height="24" fill="#53575f"/><rect x="182" y="869" width="13" height="5" fill="#202329"/><rect x="190" y="869" width="13" height="5" fill="#202329"/><polygon points="182,848 177,826 187,817 207,817 216,826 210,848" fill="#777b82"/><polygon points="191,822 204,820 207,844 193,846" fill="#a5a8ad"/><rect x="192" y="826" width="3" height="20" fill="#30333a"/><rect x="200" y="835" width="10" height="2" fill="#30333a"/><rect x="174" y="823" width="9" height="25" fill="#53575f"/><rect x="212" y="824" width="9" height="25" fill="#53575f"/><rect x="172" y="820" width="12" height="9" fill="#a5a8ad"/><rect x="212" y="820" width="12" height="9" fill="#a5a8ad"/><polygon points="216,857 220,857 221,798 217,798" fill="#6a523b"/><polygon points="219,785 227,798 211,798" fill="#c7ccd5"/><rect x="215" y="798" width="7" height="4" fill="#33373f"/><rect x="189" y="802" width="15" height="15" fill="#53575f"/><rect x="191" y="804" width="10" height="10" fill="#a5a8ad"/><rect x="180" y="796" width="6" height="3" fill="#d7dade"/><rect x="211" y="820" width="4" height="4" fill="#d7dade"/>
<ellipse cx="324" cy="873" rx="27" ry="8" fill="rgba(0, 0, 0, 0.35)" opacity="1"/><rect x="313" y="846" width="8" height="24" fill="#53575f"/><rect x="321" y="846" width="8" height="24" fill="#53575f"/><rect x="310" y="867" width="13" height="5" fill="#202329"/><rect x="318" y="867" width="13" height="5" fill="#202329"/><polygon points="310,846 305,824 315,815 335,815 344,824 338,846" fill="#777b82"/><polygon points="319,820 332,818 335,842 321,844" fill="#a5a8ad"/><rect x="320" y="824" width="3" height="20" fill="#30333a"/><rect x="328" y="833" width="10" height="2" fill="#30333a"/><rect x="302" y="821" width="9" height="25" fill="#53575f"/><rect x="340" y="822" width="9" height="25" fill="#53575f"/><rect x="300" y="818" width="12" height="9" fill="#a5a8ad"/><rect x="340" y="818" width="12" height="9" fill="#a5a8ad"/><polygon points="344,855 348,855 349,796 345,796" fill="#6a523b"/><polygon points="347,783 355,796 339,796" fill="#c7ccd5"/><rect x="343" y="796" width="7" height="4" fill="#33373f"/><rect x="317" y="800" width="15" height="15" fill="#53575f"/><rect x="319" y="802" width="10" height="10" fill="#a5a8ad"/><rect x="308" y="794" width="6" height="3" fill="#d7dade"/><rect x="339" y="818" width="4" height="4" fill="#d7dade"/>
<ellipse cx="452" cy="873" rx="27" ry="8" fill="rgba(0, 0, 0, 0.35)" opacity="1"/><rect x="441" y="848" width="8" height="24" fill="#53575f"/><rect x="449" y="848" width="8" height="24" fill="#53575f"/><rect x="438" y="869" width="13" height="5" fill="#202329"/><rect x="446" y="869" width="13" height="5" fill="#202329"/><polygon points="438,848 433,826 443,817 463,817 472,826 466,848" fill="#777b82"/><polygon points="447,822 460,820 463,844 449,846" fill="#a5a8ad"/><rect x="448" y="826" width="3" height="20" fill="#30333a"/><rect x="456" y="835" width="10" height="2" fill="#30333a"/><rect x="430" y="823" width="9" height="25" fill="#53575f"/><rect x="468" y="824" width="9" height="25" fill="#53575f"/><rect x="428" y="820" width="12" height="9" fill="#a5a8ad"/><rect x="468" y="820" width="12" height="9" fill="#a5a8ad"/><polygon points="472,857 476,857 477,798 473,798" fill="#6a523b"/><polygon points="475,785 483,798 467,798" fill="#c7ccd5"/><rect x="471" y="798" width="7" height="4" fill="#33373f"/><rect x="445" y="802" width="15" height="15" fill="#53575f"/><rect x="447" y="804" width="10" height="10" fill="#a5a8ad"/><rect x="436" y="796" width="6" height="3" fill="#d7dade"/><rect x="467" y="820" width="4" height="4" fill="#d7dade"/>
<ellipse cx="64" cy="1001" rx="27" ry="8" fill="rgba(0, 0, 0, 0.35)" opacity="1"/><rect x="56" y="974" width="8" height="24" fill="#53575f"/><rect x="64" y="974" width="8" height="24" fill="#53575f"/><rect x="54" y="995" width="13" height="5" fill="#202329"/><rect x="62" y="995" width="13" height="5" fill="#202329"/><polygon points="52,974 48,952 57,943 73,943 80,952 76,974" fill="#777b82"/><polygon points="59,948 70,946 73,970 61,972" fill="#a5a8ad"/><rect x="60" y="952" width="3" height="20" fill="#30333a"/><rect x="68" y="961" width="10" height="2" fill="#30333a"/><rect x="45" y="949" width="9" height="25" fill="#53575f"/><rect x="78" y="950" width="9" height="25" fill="#53575f"/><rect x="43" y="946" width="12" height="9" fill="#a5a8ad"/><rect x="77" y="946" width="12" height="9" fill="#a5a8ad"/><polygon points="84,983 88,983 89,924 85,924" fill="#6a523b"/><polygon points="87,911 95,924 79,924" fill="#c7ccd5"/><rect x="83" y="924" width="7" height="4" fill="#33373f"/><rect x="58" y="928" width="13" height="15" fill="#53575f"/><rect x="60" y="930" width="9" height="10" fill="#a5a8ad"/>
<ellipse cx="196" cy="1001" rx="27" ry="8" fill="rgba(0, 0, 0, 0.35)" opacity="1"/><rect x="185" y="976" width="8" height="24" fill="#53575f"/><rect x="193" y="976" width="8" height="24" fill="#53575f"/><rect x="182" y="997" width="13" height="5" fill="#202329"/><rect x="190" y="997" width="13" height="5" fill="#202329"/><polygon points="184,976 180,954 189,945 205,945 212,954 208,976" fill="#777b82"/><polygon points="191,950 202,948 205,972 193,974" fill="#a5a8ad"/><rect x="192" y="954" width="3" height="20" fill="#30333a"/><rect x="200" y="963" width="10" height="2" fill="#30333a"/><rect x="177" y="951" width="9" height="25" fill="#53575f"/><rect x="210" y="952" width="9" height="25" fill="#53575f"/><rect x="175" y="948" width="12" height="9" fill="#a5a8ad"/><rect x="209" y="948" width="12" height="9" fill="#a5a8ad"/><polygon points="216,985 220,985 221,926 217,926" fill="#6a523b"/><polygon points="219,913 227,926 211,926" fill="#c7ccd5"/><rect x="215" y="926" width="7" height="4" fill="#33373f"/><rect x="190" y="930" width="13" height="15" fill="#53575f"/><rect x="192" y="932" width="9" height="10" fill="#a5a8ad"/><rect x="180" y="924" width="6" height="3" fill="#d7dade"/><rect x="211" y="948" width="4" height="4" fill="#d7dade"/>
<ellipse cx="324" cy="1001" rx="27" ry="8" fill="rgba(0, 0, 0, 0.35)" opacity="1"/><rect x="313" y="974" width="8" height="24" fill="#53575f"/><rect x="321" y="974" width="8" height="24" fill="#53575f"/><rect x="310" y="995" width="13" height="5" fill="#202329"/><rect x="318" y="995" width="13" height="5" fill="#202329"/><polygon points="312,974 308,952 317,943 333,943 340,952 336,974" fill="#777b82"/><polygon points="319,948 330,946 333,970 321,972" fill="#a5a8ad"/><rect x="320" y="952" width="3" height="20" fill="#30333a"/><rect x="328" y="961" width="10" height="2" fill="#30333a"/><rect x="305" y="949" width="9" height="25" fill="#53575f"/><rect x="338" y="950" width="9" height="25" fill="#53575f"/><rect x="303" y="946" width="12" height="9" fill="#a5a8ad"/><rect x="337" y="946" width="12" height="9" fill="#a5a8ad"/><polygon points="344,983 348,983 349,924 345,924" fill="#6a523b"/><polygon points="347,911 355,924 339,924" fill="#c7ccd5"/><rect x="343" y="924" width="7" height="4" fill="#33373f"/><rect x="318" y="928" width="13" height="15" fill="#53575f"/><rect x="320" y="930" width="9" height="10" fill="#a5a8ad"/><rect x="308" y="922" width="6" height="3" fill="#d7dade"/><rect x="339" y="946" width="4" height="4" fill="#d7dade"/>
<ellipse cx="452" cy="1001" rx="27" ry="8" fill="rgba(0, 0, 0, 0.35)" opacity="1"/><rect x="441" y="976" width="8" height="24" fill="#53575f"/><rect x="449" y="976" width="8" height="24" fill="#53575f"/><rect x="438" y="997" width="13" height="5" fill="#202329"/><rect x="446" y="997" width="13" height="5" fill="#202329"/><polygon points="440,976 436,954 445,945 461,945 468,954 464,976" fill="#777b82"/><polygon points="447,950 458,948 461,972 449,974" fill="#a5a8ad"/><rect x="448" y="954" width="3" height="20" fill="#30333a"/><rect x="456" y="963" width="10" height="2" fill="#30333a"/><rect x="433" y="951" width="9" height="25" fill="#53575f"/><rect x="466" y="952" width="9" height="25" fill="#53575f"/><rect x="431" y="948" width="12" height="9" fill="#a5a8ad"/><rect x="465" y="948" width="12" height="9" fill="#a5a8ad"/><polygon points="472,985 476,985 477,926 473,926" fill="#6a523b"/><polygon points="475,913 483,926 467,926" fill="#c7ccd5"/><rect x="471" y="926" width="7" height="4" fill="#33373f"/><rect x="446" y="930" width="13" height="15" fill="#53575f"/><rect x="448" y="932" width="9" height="10" fill="#a5a8ad"/><rect x="436" y="924" width="6" height="3" fill="#d7dade"/><rect x="467" y="948" width="4" height="4" fill="#d7dade"/>
</svg>
