<svg xmlns="http://www.w3.org/2000/svg" width="768" height="64" viewBox="0 0 768 64" shape-rendering="crispEdges">
<rect width="768" height="64" fill="none"/>
<ellipse cx="32" cy="51" rx="16" ry="5" fill="rgba(0, 0, 0, 0.32)" opacity="1"/>
<polygon points="27,39 15,55 22,61 31,49" fill="#b83a19" opacity="1"/>
<polygon points="31,40 26,64 34,54" fill="#f06b22" opacity="1"/>
<polygon points="35,40 40,63 42,48" fill="#ffb347" opacity="1"/>
<polygon points="38,38 51,54 42,51" fill="#ffd36a" opacity="0.88"/>
<polygon points="19,55 12,51 14,61" fill="#ffd36a" opacity="0.78"/>
<rect x="19" y="54" width="2" height="2" fill="#ffb347" opacity="0.82"/>
<rect x="25" y="58" width="2" height="2" fill="#ffd36a" opacity="0.78"/>
<rect x="43" y="53" width="2" height="2" fill="#f06b22" opacity="0.72"/>
<rect x="27" y="50" width="2" height="3" fill="#2a1612" opacity="0.8"/>
<rect x="40" y="52" width="2" height="3" fill="#2a1612" opacity="0.72"/>
<polygon points="36,26 44,13 46,27 37,38" fill="#4a1f16" opacity="1"/>
<polygon points="40,25 55,15 46,22" fill="#b83a19" opacity="1"/>
<polygon points="42,29 60,22 47,27" fill="#f06b22" opacity="1"/>
<polygon points="41,34 56,29 43,31" fill="#ffb347" opacity="0.96"/>
<polygon points="37,37 49,34 38,33" fill="#ffd36a" opacity="0.84"/>
<polygon points="37,28 43,17 41,32" fill="#9f321a" opacity="0.76"/>
<polygon points="38,32 47,24 41,36" fill="#ffb347" opacity="0.66"/>
<polygon points="37,36 44,30 38,40" fill="#ffd36a" opacity="0.54"/>
<rect x="45" y="18" width="2" height="2" fill="#ffd36a" opacity="0.9"/>
<rect x="49" y="25" width="2" height="2" fill="#ffb347" opacity="0.8"/>
<rect x="52" y="21" width="1" height="2" fill="#2a1612" opacity="0.68"/>
<rect x="48" y="29" width="1" height="2" fill="#2a1612" opacity="0.54"/>
<polygon points="30,26 22,13 20,27 29,38" fill="#4a1f16" opacity="0.82"/>
<polygon points="26,25 18,12 20,22" fill="#4a1f16" opacity="0.78"/>
<polygon points="24,29 13,19 19,27" fill="#7a2417" opacity="0.76"/>
<polygon points="25,34 17,26 23,31" fill="#b83a19" opacity="0.68"/>
<polygon points="29,37 24,31 28,33" fill="#f06b22" opacity="0.58"/>
<polygon points="29,28 23,17 25,32" fill="#9f321a" opacity="0.42"/>
<polygon points="28,32 19,24 25,36" fill="#ffb347" opacity="0.32"/>
<polygon points="29,36 22,30 28,40" fill="#ffd36a" opacity="0.28"/>
<rect x="21" y="18" width="2" height="2" fill="#ffd36a" opacity="0.48"/>
<rect x="17" y="25" width="2" height="2" fill="#ffb347" opacity="0.4"/>
<rect x="14" y="21" width="1" height="2" fill="#2a1612" opacity="0.34"/>
<rect x="18" y="29" width="1" height="2" fill="#2a1612" opacity="0.26"/>
<ellipse cx="31" cy="31" rx="9" ry="12" fill="#2a1612" opacity="1"/>
<ellipse cx="33" cy="30" rx="8" ry="12" fill="#5c2118" opacity="1"/>
<ellipse cx="35" cy="29" rx="5" ry="9" fill="#7a2417" opacity="1"/>
<polygon points="27,24 35,18 42,23 39,30 31,33" fill="#9f321a" opacity="0.86"/>
<rect x="30" y="26" width="3" height="2" fill="#ffb347" opacity="0.8"/>
<rect x="34" y="29" width="3" height="2" fill="#ffd36a" opacity="0.72"/>
<rect x="37" y="22" width="2" height="2" fill="#ffd36a" opacity="0.95"/>
<rect x="33" y="23" width="2" height="2" fill="#ffb347" opacity="0.82"/>
<rect x="29" y="24" width="2" height="2" fill="#ffd36a" opacity="0.76"/>
<rect x="36" y="33" width="2" height="1" fill="#ffb347" opacity="0.76"/>
<rect x="28" y="32" width="2" height="1" fill="#f06b22" opacity="0.64"/>
<ellipse cx="37" cy="15" rx="7" ry="6" fill="#7a2417" opacity="1"/>
<ellipse cx="40" cy="14" rx="5" ry="4" fill="#9f321a" opacity="1"/>
<polygon points="43,14 50,16 43,18" fill="#ffb347" opacity="1"/>
<polygon points="34,10 29,1 37,7" fill="#f06b22" opacity="1"/>
<polygon points="37,10 39,-2 41,8" fill="#ffd36a" opacity="1"/>
<polygon points="40,11 47,4 44,12" fill="#ffb347" opacity="1"/>
<rect x="40" y="12" width="2" height="2" fill="#fff3b0" opacity="1"/>
<rect x="42" y="12" width="1" height="1" fill="#2a1612" opacity="1"/>
<rect x="36" y="16" width="2" height="1" fill="#ff8b72" opacity="0.85"/>
<rect x="21" y="39" width="22" height="8" fill="#8c806c" opacity="1"/>
<rect x="19" y="38" width="5" height="10" fill="#5b5245" opacity="0.95"/>
<rect x="40" y="38" width="5" height="10" fill="#8c806c" opacity="0.92"/>
<rect x="31" y="37" width="2" height="12" fill="#fff0bd" opacity="1"/>
<rect x="23" y="42" width="18" height="2" fill="#fff0bd" opacity="1"/>
<polygon points="24,38 28,35 31,38" fill="#fff0bd" opacity="1"/>
<polygon points="40,38 36,35 33,38" fill="#fff0bd" opacity="1"/>
<rect x="20" y="44" width="2" height="2" fill="#2a1612" opacity="0.55"/>
<rect x="42" y="40" width="1" height="2" fill="#2a1612" opacity="0.45"/>
<rect x="13" y="50" width="2" height="2" fill="#ffb347" opacity="0.85"/>
<rect x="9" y="56" width="2" height="2" fill="#f06b22" opacity="0.64"/>
<rect x="50" y="52" width="2" height="2" fill="#ffd36a" opacity="0.75"/>
<rect x="54" y="47" width="1" height="2" fill="#ffb347" opacity="0.7"/>
<ellipse cx="96" cy="51" rx="16" ry="5" fill="rgba(0, 0, 0, 0.32)" opacity="1"/>
<polygon points="91,42 77,58 86,64 95,52" fill="#b83a19" opacity="1"/>
<polygon points="95,43 88,67 98,57" fill="#f06b22" opacity="1"/>
<polygon points="99,43 106,66 106,51" fill="#ffb347" opacity="1"/>
<polygon points="102,41 117,57 106,54" fill="#ffd36a" opacity="0.88"/>
<polygon points="83,58 74,54 78,64" fill="#ffd36a" opacity="0.78"/>
<rect x="81" y="57" width="2" height="2" fill="#ffb347" opacity="0.82"/>
<rect x="89" y="61" width="2" height="2" fill="#ffd36a" opacity="0.78"/>
<rect x="109" y="56" width="2" height="2" fill="#f06b22" opacity="0.72"/>
<rect x="91" y="53" width="2" height="3" fill="#2a1612" opacity="0.8"/>
<rect x="104" y="55" width="2" height="3" fill="#2a1612" opacity="0.72"/>
<polygon points="100,29 108,25 110,39 101,41" fill="#4a1f16" opacity="1"/>
<polygon points="104,28 117,27 110,34" fill="#b83a19" opacity="1"/>
<polygon points="106,32 122,34 111,39" fill="#f06b22" opacity="1"/>
<polygon points="105,37 118,41 107,43" fill="#ffb347" opacity="0.96"/>
<polygon points="101,40 111,46 102,45" fill="#ffd36a" opacity="0.84"/>
<polygon points="101,31 107,29 105,35" fill="#9f321a" opacity="0.76"/>
<polygon points="102,35 111,36 105,39" fill="#ffb347" opacity="0.66"/>
<polygon points="101,39 108,42 102,43" fill="#ffd36a" opacity="0.54"/>
<rect x="109" y="30" width="2" height="2" fill="#ffd36a" opacity="0.9"/>
<rect x="113" y="37" width="2" height="2" fill="#ffb347" opacity="0.8"/>
<rect x="116" y="33" width="1" height="2" fill="#2a1612" opacity="0.68"/>
<rect x="112" y="41" width="1" height="2" fill="#2a1612" opacity="0.54"/>
<polygon points="94,29 86,25 84,39 93,41" fill="#4a1f16" opacity="0.82"/>
<polygon points="90,28 84,24 84,34" fill="#4a1f16" opacity="0.78"/>
<polygon points="88,32 79,31 83,39" fill="#7a2417" opacity="0.76"/>
<polygon points="89,37 83,38 87,43" fill="#b83a19" opacity="0.68"/>
<polygon points="93,40 90,43 92,45" fill="#f06b22" opacity="0.58"/>
<polygon points="93,31 87,29 89,35" fill="#9f321a" opacity="0.42"/>
<polygon points="92,35 83,36 89,39" fill="#ffb347" opacity="0.32"/>
<polygon points="93,39 86,42 92,43" fill="#ffd36a" opacity="0.28"/>
<rect x="85" y="30" width="2" height="2" fill="#ffd36a" opacity="0.48"/>
<rect x="81" y="37" width="2" height="2" fill="#ffb347" opacity="0.4"/>
<rect x="78" y="33" width="1" height="2" fill="#2a1612" opacity="0.34"/>
<rect x="82" y="41" width="1" height="2" fill="#2a1612" opacity="0.26"/>
<ellipse cx="95" cy="34" rx="9" ry="12" fill="#2a1612" opacity="1"/>
<ellipse cx="97" cy="33" rx="8" ry="12" fill="#5c2118" opacity="1"/>
<ellipse cx="99" cy="32" rx="5" ry="9" fill="#7a2417" opacity="1"/>
<polygon points="91,27 99,21 106,26 103,33 95,36" fill="#9f321a" opacity="0.86"/>
<rect x="94" y="29" width="3" height="2" fill="#ffb347" opacity="0.8"/>
<rect x="98" y="32" width="3" height="2" fill="#ffd36a" opacity="0.72"/>
<rect x="101" y="25" width="2" height="2" fill="#ffd36a" opacity="0.95"/>
<rect x="97" y="26" width="2" height="2" fill="#ffb347" opacity="0.82"/>
<rect x="93" y="27" width="2" height="2" fill="#ffd36a" opacity="0.76"/>
<rect x="100" y="36" width="2" height="1" fill="#ffb347" opacity="0.76"/>
<rect x="92" y="35" width="2" height="1" fill="#f06b22" opacity="0.64"/>
<ellipse cx="101" cy="19" rx="7" ry="6" fill="#7a2417" opacity="1"/>
<ellipse cx="104" cy="18" rx="5" ry="4" fill="#9f321a" opacity="1"/>
<polygon points="107,18 114,20 107,22" fill="#ffb347" opacity="1"/>
<polygon points="98,14 93,5 101,11" fill="#f06b22" opacity="1"/>
<polygon points="101,14 103,2 105,12" fill="#ffd36a" opacity="1"/>
<polygon points="104,15 111,8 108,16" fill="#ffb347" opacity="1"/>
<rect x="104" y="16" width="2" height="2" fill="#fff3b0" opacity="1"/>
<rect x="106" y="16" width="1" height="1" fill="#2a1612" opacity="1"/>
<rect x="100" y="20" width="2" height="1" fill="#ff8b72" opacity="0.85"/>
<rect x="85" y="42" width="22" height="8" fill="#8c806c" opacity="1"/>
<rect x="83" y="41" width="5" height="10" fill="#5b5245" opacity="0.95"/>
<rect x="104" y="41" width="5" height="10" fill="#8c806c" opacity="0.92"/>
<rect x="95" y="40" width="2" height="12" fill="#fff0bd" opacity="1"/>
<rect x="87" y="45" width="18" height="2" fill="#fff0bd" opacity="1"/>
<polygon points="88,41 92,38 95,41" fill="#fff0bd" opacity="1"/>
<polygon points="104,41 100,38 97,41" fill="#fff0bd" opacity="1"/>
<rect x="84" y="47" width="2" height="2" fill="#2a1612" opacity="0.55"/>
<rect x="106" y="43" width="1" height="2" fill="#2a1612" opacity="0.45"/>
<rect x="77" y="53" width="2" height="2" fill="#ffb347" opacity="0.85"/>
<rect x="73" y="59" width="2" height="2" fill="#f06b22" opacity="0.64"/>
<rect x="114" y="55" width="2" height="2" fill="#ffd36a" opacity="0.75"/>
<rect x="118" y="50" width="1" height="2" fill="#ffb347" opacity="0.7"/>
<ellipse cx="160" cy="51" rx="16" ry="5" fill="rgba(0, 0, 0, 0.32)" opacity="1"/>
<polygon points="155,43 138,59 150,65 159,53" fill="#b83a19" opacity="1"/>
<polygon points="159,44 149,68 162,58" fill="#f06b22" opacity="1"/>
<polygon points="163,44 173,67 170,52" fill="#ffb347" opacity="1"/>
<polygon points="166,42 184,58 170,55" fill="#ffd36a" opacity="0.88"/>
<polygon points="147,59 135,55 142,65" fill="#ffd36a" opacity="0.78"/>
<rect x="142" y="58" width="2" height="2" fill="#ffb347" opacity="0.82"/>
<rect x="153" y="62" width="2" height="2" fill="#ffd36a" opacity="0.78"/>
<rect x="176" y="57" width="2" height="2" fill="#f06b22" opacity="0.72"/>
<rect x="155" y="54" width="2" height="3" fill="#2a1612" opacity="0.8"/>
<rect x="168" y="56" width="2" height="3" fill="#2a1612" opacity="0.72"/>
<polygon points="164,30 172,35 174,49 165,42" fill="#4a1f16" opacity="1"/>
<polygon points="168,29 180,37 174,44" fill="#b83a19" opacity="1"/>
<polygon points="170,33 185,44 175,49" fill="#f06b22" opacity="1"/>
<polygon points="169,38 181,51 171,53" fill="#ffb347" opacity="0.96"/>
<polygon points="165,41 174,56 166,55" fill="#ffd36a" opacity="0.84"/>
<polygon points="165,32 171,39 169,36" fill="#9f321a" opacity="0.76"/>
<polygon points="166,36 175,46 169,40" fill="#ffb347" opacity="0.66"/>
<polygon points="165,40 172,52 166,44" fill="#ffd36a" opacity="0.54"/>
<rect x="173" y="40" width="2" height="2" fill="#ffd36a" opacity="0.9"/>
<rect x="177" y="47" width="2" height="2" fill="#ffb347" opacity="0.8"/>
<rect x="180" y="43" width="1" height="2" fill="#2a1612" opacity="0.68"/>
<rect x="176" y="51" width="1" height="2" fill="#2a1612" opacity="0.54"/>
<polygon points="158,30 150,35 148,49 157,42" fill="#4a1f16" opacity="0.82"/>
<polygon points="154,29 149,34 148,44" fill="#4a1f16" opacity="0.78"/>
<polygon points="152,33 144,41 147,49" fill="#7a2417" opacity="0.76"/>
<polygon points="153,38 148,48 151,53" fill="#b83a19" opacity="0.68"/>
<polygon points="157,41 155,53 156,55" fill="#f06b22" opacity="0.58"/>
<polygon points="157,32 151,39 153,36" fill="#9f321a" opacity="0.42"/>
<polygon points="156,36 147,46 153,40" fill="#ffb347" opacity="0.32"/>
<polygon points="157,40 150,52 156,44" fill="#ffd36a" opacity="0.28"/>
<rect x="149" y="40" width="2" height="2" fill="#ffd36a" opacity="0.48"/>
<rect x="145" y="47" width="2" height="2" fill="#ffb347" opacity="0.4"/>
<rect x="142" y="43" width="1" height="2" fill="#2a1612" opacity="0.34"/>
<rect x="146" y="51" width="1" height="2" fill="#2a1612" opacity="0.26"/>
<ellipse cx="159" cy="35" rx="9" ry="12" fill="#2a1612" opacity="1"/>
<ellipse cx="161" cy="34" rx="8" ry="12" fill="#5c2118" opacity="1"/>
<ellipse cx="163" cy="33" rx="5" ry="9" fill="#7a2417" opacity="1"/>
<polygon points="155,28 163,22 170,27 167,34 159,37" fill="#9f321a" opacity="0.86"/>
<rect x="158" y="30" width="3" height="2" fill="#ffb347" opacity="0.8"/>
<rect x="162" y="33" width="3" height="2" fill="#ffd36a" opacity="0.72"/>
<rect x="165" y="26" width="2" height="2" fill="#ffd36a" opacity="0.95"/>
<rect x="161" y="27" width="2" height="2" fill="#ffb347" opacity="0.82"/>
<rect x="157" y="28" width="2" height="2" fill="#ffd36a" opacity="0.76"/>
<rect x="164" y="37" width="2" height="1" fill="#ffb347" opacity="0.76"/>
<rect x="156" y="36" width="2" height="1" fill="#f06b22" opacity="0.64"/>
<ellipse cx="165" cy="21" rx="7" ry="6" fill="#7a2417" opacity="1"/>
<ellipse cx="168" cy="20" rx="5" ry="4" fill="#9f321a" opacity="1"/>
<polygon points="171,20 178,22 171,24" fill="#ffb347" opacity="1"/>
<polygon points="162,16 157,7 165,13" fill="#f06b22" opacity="1"/>
<polygon points="165,16 167,4 169,14" fill="#ffd36a" opacity="1"/>
<polygon points="168,17 175,10 172,18" fill="#ffb347" opacity="1"/>
<rect x="168" y="18" width="2" height="2" fill="#fff3b0" opacity="1"/>
<rect x="170" y="18" width="1" height="1" fill="#2a1612" opacity="1"/>
<rect x="164" y="22" width="2" height="1" fill="#ff8b72" opacity="0.85"/>
<rect x="149" y="43" width="22" height="8" fill="#8c806c" opacity="1"/>
<rect x="147" y="42" width="5" height="10" fill="#5b5245" opacity="0.95"/>
<rect x="168" y="42" width="5" height="10" fill="#8c806c" opacity="0.92"/>
<rect x="159" y="41" width="2" height="12" fill="#fff0bd" opacity="1"/>
<rect x="151" y="46" width="18" height="2" fill="#fff0bd" opacity="1"/>
<polygon points="152,42 156,39 159,42" fill="#fff0bd" opacity="1"/>
<polygon points="168,42 164,39 161,42" fill="#fff0bd" opacity="1"/>
<rect x="148" y="48" width="2" height="2" fill="#2a1612" opacity="0.55"/>
<rect x="170" y="44" width="1" height="2" fill="#2a1612" opacity="0.45"/>
<rect x="141" y="54" width="2" height="2" fill="#ffb347" opacity="0.85"/>
<rect x="137" y="60" width="2" height="2" fill="#f06b22" opacity="0.64"/>
<rect x="178" y="56" width="2" height="2" fill="#ffd36a" opacity="0.75"/>
<rect x="182" y="51" width="1" height="2" fill="#ffb347" opacity="0.7"/>
<ellipse cx="224" cy="51" rx="16" ry="5" fill="rgba(0, 0, 0, 0.32)" opacity="1"/>
<polygon points="219,42 205,58 214,64 223,52" fill="#b83a19" opacity="1"/>
<polygon points="223,43 216,67 226,57" fill="#f06b22" opacity="1"/>
<polygon points="227,43 234,66 234,51" fill="#ffb347" opacity="1"/>
<polygon points="230,41 245,57 234,54" fill="#ffd36a" opacity="0.88"/>
<polygon points="211,58 202,54 206,64" fill="#ffd36a" opacity="0.78"/>
<rect x="209" y="57" width="2" height="2" fill="#ffb347" opacity="0.82"/>
<rect x="217" y="61" width="2" height="2" fill="#ffd36a" opacity="0.78"/>
<rect x="237" y="56" width="2" height="2" fill="#f06b22" opacity="0.72"/>
<rect x="219" y="53" width="2" height="3" fill="#2a1612" opacity="0.8"/>
<rect x="232" y="55" width="2" height="3" fill="#2a1612" opacity="0.72"/>
<polygon points="228,29 236,25 238,39 229,41" fill="#4a1f16" opacity="1"/>
<polygon points="232,28 245,27 238,34" fill="#b83a19" opacity="1"/>
<polygon points="234,32 250,34 239,39" fill="#f06b22" opacity="1"/>
<polygon points="233,37 246,41 235,43" fill="#ffb347" opacity="0.96"/>
<polygon points="229,40 239,46 230,45" fill="#ffd36a" opacity="0.84"/>
<polygon points="229,31 235,29 233,35" fill="#9f321a" opacity="0.76"/>
<polygon points="230,35 239,36 233,39" fill="#ffb347" opacity="0.66"/>
<polygon points="229,39 236,42 230,43" fill="#ffd36a" opacity="0.54"/>
<rect x="237" y="30" width="2" height="2" fill="#ffd36a" opacity="0.9"/>
<rect x="241" y="37" width="2" height="2" fill="#ffb347" opacity="0.8"/>
<rect x="244" y="33" width="1" height="2" fill="#2a1612" opacity="0.68"/>
<rect x="240" y="41" width="1" height="2" fill="#2a1612" opacity="0.54"/>
<polygon points="222,29 214,25 212,39 221,41" fill="#4a1f16" opacity="0.82"/>
<polygon points="218,28 212,24 212,34" fill="#4a1f16" opacity="0.78"/>
<polygon points="216,32 207,31 211,39" fill="#7a2417" opacity="0.76"/>
<polygon points="217,37 211,38 215,43" fill="#b83a19" opacity="0.68"/>
<polygon points="221,40 218,43 220,45" fill="#f06b22" opacity="0.58"/>
<polygon points="221,31 215,29 217,35" fill="#9f321a" opacity="0.42"/>
<polygon points="220,35 211,36 217,39" fill="#ffb347" opacity="0.32"/>
<polygon points="221,39 214,42 220,43" fill="#ffd36a" opacity="0.28"/>
<rect x="213" y="30" width="2" height="2" fill="#ffd36a" opacity="0.48"/>
<rect x="209" y="37" width="2" height="2" fill="#ffb347" opacity="0.4"/>
<rect x="206" y="33" width="1" height="2" fill="#2a1612" opacity="0.34"/>
<rect x="210" y="41" width="1" height="2" fill="#2a1612" opacity="0.26"/>
<ellipse cx="223" cy="34" rx="9" ry="12" fill="#2a1612" opacity="1"/>
<ellipse cx="225" cy="33" rx="8" ry="12" fill="#5c2118" opacity="1"/>
<ellipse cx="227" cy="32" rx="5" ry="9" fill="#7a2417" opacity="1"/>
<polygon points="219,27 227,21 234,26 231,33 223,36" fill="#9f321a" opacity="0.86"/>
<rect x="222" y="29" width="3" height="2" fill="#ffb347" opacity="0.8"/>
<rect x="226" y="32" width="3" height="2" fill="#ffd36a" opacity="0.72"/>
<rect x="229" y="25" width="2" height="2" fill="#ffd36a" opacity="0.95"/>
<rect x="225" y="26" width="2" height="2" fill="#ffb347" opacity="0.82"/>
<rect x="221" y="27" width="2" height="2" fill="#ffd36a" opacity="0.76"/>
<rect x="228" y="36" width="2" height="1" fill="#ffb347" opacity="0.76"/>
<rect x="220" y="35" width="2" height="1" fill="#f06b22" opacity="0.64"/>
<ellipse cx="229" cy="19" rx="7" ry="6" fill="#7a2417" opacity="1"/>
<ellipse cx="232" cy="18" rx="5" ry="4" fill="#9f321a" opacity="1"/>
<polygon points="235,18 242,20 235,22" fill="#ffb347" opacity="1"/>
<polygon points="226,14 221,5 229,11" fill="#f06b22" opacity="1"/>
<polygon points="229,14 231,2 233,12" fill="#ffd36a" opacity="1"/>
<polygon points="232,15 239,8 236,16" fill="#ffb347" opacity="1"/>
<rect x="232" y="16" width="2" height="2" fill="#fff3b0" opacity="1"/>
<rect x="234" y="16" width="1" height="1" fill="#2a1612" opacity="1"/>
<rect x="228" y="20" width="2" height="1" fill="#ff8b72" opacity="0.85"/>
<rect x="213" y="42" width="22" height="8" fill="#8c806c" opacity="1"/>
<rect x="211" y="41" width="5" height="10" fill="#5b5245" opacity="0.95"/>
<rect x="232" y="41" width="5" height="10" fill="#8c806c" opacity="0.92"/>
<rect x="223" y="40" width="2" height="12" fill="#fff0bd" opacity="1"/>
<rect x="215" y="45" width="18" height="2" fill="#fff0bd" opacity="1"/>
<polygon points="216,41 220,38 223,41" fill="#fff0bd" opacity="1"/>
<polygon points="232,41 228,38 225,41" fill="#fff0bd" opacity="1"/>
<rect x="212" y="47" width="2" height="2" fill="#2a1612" opacity="0.55"/>
<rect x="234" y="43" width="1" height="2" fill="#2a1612" opacity="0.45"/>
<rect x="205" y="53" width="2" height="2" fill="#ffb347" opacity="0.85"/>
<rect x="201" y="59" width="2" height="2" fill="#f06b22" opacity="0.64"/>
<rect x="242" y="55" width="2" height="2" fill="#ffd36a" opacity="0.75"/>
<rect x="246" y="50" width="1" height="2" fill="#ffb347" opacity="0.7"/>
<ellipse cx="288" cy="52" rx="15" ry="5" fill="rgba(0, 0, 0, 0.32)" opacity="1"/>
<polygon points="283,40 265,43 273,51 284,47" fill="#4a1f16" opacity="1"/>
<polygon points="292,41 312,44 302,52 291,48" fill="#b83a19" opacity="1"/>
<polygon points="270,43 261,38 267,49" fill="#f06b22" opacity="0.68"/>
<polygon points="303,43 313,39 306,50" fill="#ffd36a" opacity="0.7"/>
<ellipse cx="286" cy="42" rx="13" ry="7" fill="#2a1612" opacity="1"/>
<ellipse cx="294" cy="39" rx="5" ry="4" fill="#7a2417" opacity="1"/>
<polygon points="297,38 303,39 297,41" fill="#ffb347" opacity="0.8"/>
<rect x="280" y="44" width="17" height="7" fill="#8c806c" opacity="1"/>
<rect x="279" y="43" width="4" height="8" fill="#5b5245" opacity="1"/>
<rect x="287" y="43" width="2" height="9" fill="#fff0bd" opacity="1"/>
<rect x="281" y="47" width="14" height="2" fill="#fff0bd" opacity="1"/>
<rect x="267" y="35" width="2" height="2" fill="#ffd36a" opacity="0.9"/>
<rect x="273" y="34" width="2" height="2" fill="#ffb347" opacity="0.9"/>
<rect x="279" y="33" width="2" height="2" fill="#f06b22" opacity="0.9"/>
<rect x="285" y="32" width="2" height="2" fill="#ffd36a" opacity="0.9"/>
<rect x="291" y="31" width="2" height="2" fill="#f06b22" opacity="0.9"/>
<rect x="297" y="30" width="2" height="2" fill="#ffb347" opacity="0.9"/>
<rect x="303" y="29" width="2" height="2" fill="#ffd36a" opacity="0.9"/>
<rect x="309" y="28" width="2" height="2" fill="#ffb347" opacity="0.9"/>
<ellipse cx="352" cy="52" rx="15" ry="5" fill="rgba(0, 0, 0, 0.32)" opacity="1"/>
<polygon points="347,41 329,44 337,52 348,48" fill="#4a1f16" opacity="0.9685714285714285"/>
<polygon points="356,42 376,45 366,53 355,49" fill="#b83a19" opacity="0.9685714285714285"/>
<polygon points="334,44 325,39 331,50" fill="#f06b22" opacity="0.63"/>
<polygon points="367,44 377,40 370,51" fill="#ffd36a" opacity="0.6399999999999999"/>
<ellipse cx="350" cy="43" rx="12" ry="7" fill="#2a1612" opacity="0.9642857142857143"/>
<ellipse cx="358" cy="40" rx="5" ry="4" fill="#7a2417" opacity="0.94"/>
<polygon points="361,39 367,40 361,42" fill="#ffb347" opacity="0.7285714285714286"/>
<rect x="344" y="45" width="17" height="7" fill="#8c806c" opacity="0.9885714285714285"/>
<rect x="343" y="44" width="4" height="8" fill="#5b5245" opacity="0.9885714285714285"/>
<rect x="351" y="44" width="2" height="9" fill="#fff0bd" opacity="0.9885714285714285"/>
<rect x="345" y="48" width="14" height="2" fill="#fff0bd" opacity="0.9885714285714285"/>
<rect x="331" y="35" width="2" height="2" fill="#ffd36a" opacity="0.8057142857142857"/>
<rect x="337" y="33" width="2" height="2" fill="#ffb347" opacity="0.8057142857142857"/>
<rect x="343" y="32" width="2" height="2" fill="#f06b22" opacity="0.8057142857142857"/>
<rect x="349" y="32" width="2" height="2" fill="#ffd36a" opacity="0.8057142857142857"/>
<rect x="355" y="30" width="2" height="2" fill="#f06b22" opacity="0.8057142857142857"/>
<rect x="361" y="29" width="2" height="2" fill="#ffb347" opacity="0.8057142857142857"/>
<rect x="367" y="29" width="2" height="2" fill="#ffd36a" opacity="0.8057142857142857"/>
<rect x="373" y="27" width="2" height="2" fill="#ffb347" opacity="0.8057142857142857"/>
<ellipse cx="416" cy="52" rx="15" ry="5" fill="rgba(0, 0, 0, 0.32)" opacity="1"/>
<polygon points="411,42 393,45 401,53 412,49" fill="#4a1f16" opacity="0.9371428571428572"/>
<polygon points="420,43 440,46 430,54 419,50" fill="#b83a19" opacity="0.9371428571428572"/>
<polygon points="398,45 389,40 395,51" fill="#f06b22" opacity="0.5800000000000001"/>
<polygon points="431,45 441,41 434,52" fill="#ffd36a" opacity="0.58"/>
<ellipse cx="415" cy="44" rx="12" ry="6" fill="#2a1612" opacity="0.9285714285714286"/>
<ellipse cx="422" cy="41" rx="4" ry="3" fill="#7a2417" opacity="0.88"/>
<polygon points="425,40 431,41 425,43" fill="#ffb347" opacity="0.6571428571428573"/>
<rect x="408" y="46" width="17" height="7" fill="#8c806c" opacity="0.9771428571428571"/>
<rect x="407" y="45" width="4" height="8" fill="#5b5245" opacity="0.9771428571428571"/>
<rect x="415" y="45" width="2" height="9" fill="#fff0bd" opacity="0.9771428571428571"/>
<rect x="409" y="49" width="14" height="2" fill="#fff0bd" opacity="0.9771428571428571"/>
<rect x="395" y="34" width="2" height="2" fill="#ffd36a" opacity="0.7114285714285715"/>
<rect x="401" y="33" width="2" height="2" fill="#ffb347" opacity="0.7114285714285715"/>
<rect x="407" y="32" width="2" height="2" fill="#f06b22" opacity="0.7114285714285715"/>
<rect x="413" y="31" width="2" height="2" fill="#ffd36a" opacity="0.7114285714285715"/>
<rect x="419" y="30" width="2" height="2" fill="#f06b22" opacity="0.7114285714285715"/>
<rect x="425" y="29" width="2" height="2" fill="#ffb347" opacity="0.7114285714285715"/>
<rect x="431" y="28" width="2" height="2" fill="#ffd36a" opacity="0.7114285714285715"/>
<rect x="437" y="27" width="2" height="2" fill="#ffb347" opacity="0.7114285714285715"/>
<ellipse cx="480" cy="52" rx="15" ry="5" fill="rgba(0, 0, 0, 0.32)" opacity="1"/>
<polygon points="475,43 457,46 465,54 476,50" fill="#4a1f16" opacity="0.9057142857142857"/>
<polygon points="484,44 504,47 494,55 483,51" fill="#b83a19" opacity="0.9057142857142857"/>
<polygon points="462,46 453,41 459,52" fill="#f06b22" opacity="0.53"/>
<polygon points="495,46 505,42 498,53" fill="#ffd36a" opacity="0.52"/>
<ellipse cx="479" cy="45" rx="11" ry="6" fill="#2a1612" opacity="0.8928571428571429"/>
<ellipse cx="486" cy="42" rx="4" ry="3" fill="#7a2417" opacity="0.8200000000000001"/>
<polygon points="489,41 495,42 489,44" fill="#ffb347" opacity="0.5857142857142857"/>
<rect x="472" y="47" width="17" height="7" fill="#8c806c" opacity="0.9657142857142857"/>
<rect x="471" y="46" width="4" height="8" fill="#5b5245" opacity="0.9657142857142857"/>
<rect x="479" y="46" width="2" height="9" fill="#fff0bd" opacity="0.9657142857142857"/>
<rect x="473" y="50" width="14" height="2" fill="#fff0bd" opacity="0.9657142857142857"/>
<rect x="459" y="34" width="2" height="2" fill="#ffd36a" opacity="0.6171428571428572"/>
<rect x="465" y="32" width="2" height="2" fill="#ffb347" opacity="0.6171428571428572"/>
<rect x="471" y="31" width="2" height="2" fill="#f06b22" opacity="0.6171428571428572"/>
<rect x="477" y="31" width="2" height="2" fill="#ffd36a" opacity="0.6171428571428572"/>
<rect x="483" y="29" width="2" height="2" fill="#f06b22" opacity="0.6171428571428572"/>
<rect x="489" y="28" width="2" height="2" fill="#ffb347" opacity="0.6171428571428572"/>
<rect x="495" y="28" width="2" height="2" fill="#ffd36a" opacity="0.6171428571428572"/>
<rect x="501" y="26" width="2" height="2" fill="#ffb347" opacity="0.6171428571428572"/>
<ellipse cx="544" cy="52" rx="15" ry="5" fill="rgba(0, 0, 0, 0.32)" opacity="1"/>
<polygon points="539,44 521,47 529,55 540,51" fill="#4a1f16" opacity="0.8742857142857143"/>
<polygon points="548,45 568,48 558,56 547,52" fill="#b83a19" opacity="0.8742857142857143"/>
<polygon points="526,47 517,42 523,53" fill="#f06b22" opacity="0.4800000000000001"/>
<polygon points="559,47 569,43 562,54" fill="#ffd36a" opacity="0.45999999999999996"/>
<ellipse cx="544" cy="46" rx="11" ry="5" fill="#2a1612" opacity="0.8571428571428572"/>
<ellipse cx="550" cy="43" rx="4" ry="3" fill="#7a2417" opacity="0.76"/>
<polygon points="553,42 559,43 553,45" fill="#ffb347" opacity="0.5142857142857143"/>
<rect x="536" y="48" width="17" height="7" fill="#8c806c" opacity="0.9542857142857143"/>
<rect x="535" y="47" width="4" height="8" fill="#5b5245" opacity="0.9542857142857143"/>
<rect x="543" y="47" width="2" height="9" fill="#fff0bd" opacity="0.9542857142857143"/>
<rect x="537" y="51" width="14" height="2" fill="#fff0bd" opacity="0.9542857142857143"/>
<rect x="523" y="33" width="2" height="2" fill="#ffd36a" opacity="0.5228571428571429"/>
<rect x="529" y="32" width="2" height="2" fill="#ffb347" opacity="0.5228571428571429"/>
<rect x="535" y="30" width="2" height="2" fill="#f06b22" opacity="0.5228571428571429"/>
<rect x="541" y="30" width="2" height="2" fill="#ffd36a" opacity="0.5228571428571429"/>
<rect x="547" y="29" width="2" height="2" fill="#f06b22" opacity="0.5228571428571429"/>
<rect x="553" y="27" width="2" height="2" fill="#ffb347" opacity="0.5228571428571429"/>
<rect x="559" y="27" width="2" height="2" fill="#ffd36a" opacity="0.5228571428571429"/>
<rect x="565" y="26" width="2" height="2" fill="#ffb347" opacity="0.5228571428571429"/>
<ellipse cx="608" cy="52" rx="15" ry="5" fill="rgba(0, 0, 0, 0.32)" opacity="1"/>
<polygon points="603,45 585,48 593,56 604,52" fill="#4a1f16" opacity="0.8428571428571429"/>
<polygon points="612,46 632,49 622,57 611,53" fill="#b83a19" opacity="0.8428571428571429"/>
<polygon points="590,48 581,43 587,54" fill="#f06b22" opacity="0.43000000000000005"/>
<polygon points="623,48 633,44 626,55" fill="#ffd36a" opacity="0.39999999999999997"/>
<ellipse cx="608" cy="47" rx="10" ry="5" fill="#2a1612" opacity="0.8214285714285714"/>
<ellipse cx="614" cy="44" rx="4" ry="3" fill="#7a2417" opacity="0.7"/>
<polygon points="617,43 623,44 617,46" fill="#ffb347" opacity="0.4428571428571429"/>
<rect x="600" y="49" width="17" height="7" fill="#8c806c" opacity="0.9428571428571428"/>
<rect x="599" y="48" width="4" height="8" fill="#5b5245" opacity="0.9428571428571428"/>
<rect x="607" y="48" width="2" height="9" fill="#fff0bd" opacity="0.9428571428571428"/>
<rect x="601" y="52" width="14" height="2" fill="#fff0bd" opacity="0.9428571428571428"/>
<rect x="587" y="33" width="2" height="2" fill="#ffd36a" opacity="0.42857142857142855"/>
<rect x="593" y="31" width="2" height="2" fill="#ffb347" opacity="0.42857142857142855"/>
<rect x="599" y="29" width="2" height="2" fill="#f06b22" opacity="0.42857142857142855"/>
<rect x="605" y="30" width="2" height="2" fill="#ffd36a" opacity="0.42857142857142855"/>
<rect x="611" y="28" width="2" height="2" fill="#f06b22" opacity="0.42857142857142855"/>
<rect x="617" y="26" width="2" height="2" fill="#ffb347" opacity="0.42857142857142855"/>
<rect x="623" y="27" width="2" height="2" fill="#ffd36a" opacity="0.42857142857142855"/>
<rect x="629" y="25" width="2" height="2" fill="#ffb347" opacity="0.42857142857142855"/>
<rect x="596" y="54" width="5" height="2" fill="#4b3a35" opacity="1"/>
<rect x="609" y="56" width="4" height="2" fill="#4b3a35" opacity="1"/>
<rect x="618" y="53" width="3" height="2" fill="#4b3a35" opacity="1"/>
<rect x="606" y="46" width="3" height="2" fill="#ffd36a" opacity="0.42"/>
<rect x="614" y="48" width="2" height="2" fill="#f06b22" opacity="0.36"/>
<ellipse cx="672" cy="52" rx="15" ry="5" fill="rgba(0, 0, 0, 0.32)" opacity="1"/>
<polygon points="667,46 649,49 657,57 668,53" fill="#4a1f16" opacity="0.8114285714285714"/>
<polygon points="676,47 696,50 686,58 675,54" fill="#b83a19" opacity="0.8114285714285714"/>
<polygon points="654,49 645,44 651,55" fill="#f06b22" opacity="0.38000000000000006"/>
<polygon points="687,49 697,45 690,56" fill="#ffd36a" opacity="0.33999999999999997"/>
<ellipse cx="673" cy="48" rx="10" ry="4" fill="#2a1612" opacity="0.7857142857142857"/>
<ellipse cx="678" cy="45" rx="3" ry="2" fill="#7a2417" opacity="0.64"/>
<polygon points="681,44 687,45 681,47" fill="#ffb347" opacity="0.3714285714285715"/>
<rect x="664" y="50" width="17" height="7" fill="#8c806c" opacity="0.9314285714285714"/>
<rect x="663" y="49" width="4" height="8" fill="#5b5245" opacity="0.9314285714285714"/>
<rect x="671" y="49" width="2" height="9" fill="#fff0bd" opacity="0.9314285714285714"/>
<rect x="665" y="53" width="14" height="2" fill="#fff0bd" opacity="0.9314285714285714"/>
<rect x="651" y="32" width="2" height="2" fill="#ffd36a" opacity="0.3342857142857143"/>
<rect x="657" y="31" width="2" height="2" fill="#ffb347" opacity="0.3342857142857143"/>
<rect x="663" y="29" width="2" height="2" fill="#f06b22" opacity="0.3342857142857143"/>
<rect x="669" y="29" width="2" height="2" fill="#ffd36a" opacity="0.3342857142857143"/>
<rect x="675" y="28" width="2" height="2" fill="#f06b22" opacity="0.3342857142857143"/>
<rect x="681" y="26" width="2" height="2" fill="#ffb347" opacity="0.3342857142857143"/>
<rect x="687" y="26" width="2" height="2" fill="#ffd36a" opacity="0.3342857142857143"/>
<rect x="693" y="25" width="2" height="2" fill="#ffb347" opacity="0.3342857142857143"/>
<rect x="660" y="55" width="5" height="2" fill="#4b3a35" opacity="1"/>
<rect x="673" y="57" width="4" height="2" fill="#4b3a35" opacity="1"/>
<rect x="682" y="54" width="3" height="2" fill="#4b3a35" opacity="1"/>
<rect x="670" y="47" width="3" height="2" fill="#ffd36a" opacity="0.42"/>
<rect x="678" y="49" width="2" height="2" fill="#f06b22" opacity="0.36"/>
<ellipse cx="736" cy="52" rx="15" ry="5" fill="rgba(0, 0, 0, 0.32)" opacity="1"/>
<polygon points="731,47 713,50 721,58 732,54" fill="#4a1f16" opacity="0.78"/>
<polygon points="740,48 760,51 750,59 739,55" fill="#b83a19" opacity="0.78"/>
<polygon points="718,50 709,45 715,56" fill="#f06b22" opacity="0.33000000000000007"/>
<polygon points="751,50 761,46 754,57" fill="#ffd36a" opacity="0.27999999999999997"/>
<ellipse cx="737" cy="49" rx="9" ry="4" fill="#2a1612" opacity="0.75"/>
<ellipse cx="742" cy="46" rx="3" ry="2" fill="#7a2417" opacity="0.5800000000000001"/>
<polygon points="745,45 751,46 745,48" fill="#ffb347" opacity="0.30000000000000004"/>
<rect x="728" y="51" width="17" height="7" fill="#8c806c" opacity="0.92"/>
<rect x="727" y="50" width="4" height="8" fill="#5b5245" opacity="0.92"/>
<rect x="735" y="50" width="2" height="9" fill="#fff0bd" opacity="0.92"/>
<rect x="729" y="54" width="14" height="2" fill="#fff0bd" opacity="0.92"/>
<rect x="715" y="32" width="2" height="2" fill="#ffd36a" opacity="0.24"/>
<rect x="721" y="30" width="2" height="2" fill="#ffb347" opacity="0.24"/>
<rect x="727" y="28" width="2" height="2" fill="#f06b22" opacity="0.24"/>
<rect x="733" y="29" width="2" height="2" fill="#ffd36a" opacity="0.24"/>
<rect x="739" y="27" width="2" height="2" fill="#f06b22" opacity="0.24"/>
<rect x="745" y="25" width="2" height="2" fill="#ffb347" opacity="0.24"/>
<rect x="751" y="26" width="2" height="2" fill="#ffd36a" opacity="0.24"/>
<rect x="757" y="24" width="2" height="2" fill="#ffb347" opacity="0.24"/>
<rect x="724" y="56" width="5" height="2" fill="#4b3a35" opacity="1"/>
<rect x="737" y="58" width="4" height="2" fill="#4b3a35" opacity="1"/>
<rect x="746" y="55" width="3" height="2" fill="#4b3a35" opacity="1"/>
<rect x="734" y="48" width="3" height="2" fill="#ffd36a" opacity="0.42"/>
<rect x="742" y="50" width="2" height="2" fill="#f06b22" opacity="0.36"/>
</svg>
