<svg xmlns="http://www.w3.org/2000/svg" width="128" height="128" viewBox="0 0 128 128" shape-rendering="crispEdges">
<rect width="128" height="128" fill="none"/>
<ellipse cx="64" cy="101" rx="31" ry="9" fill="rgba(0, 0, 0, 0.34)"/>
<polygon points="37,51 88,44 94,89 43,96" fill="#654738"/>
<polygon points="37,51 51,39 102,33 88,44" fill="#8c806c"/>
<polygon points="88,44 102,33 108,78 94,89" fill="#3b2a22"/>
<rect x="43" y="61" width="47" height="5" fill="#8c806c"/>
<rect x="46" y="78" width="45" height="5" fill="#3b2a22"/>
<rect x="55" y="47" width="6" height="44" fill="#3b2a22"/>
<rect x="74" y="44" width="5" height="44" fill="#8c806c"/>
<rect x="46" y="57" width="4" height="34" fill="#3c4247"/>
<rect x="88" y="52" width="4" height="35" fill="#3c4247"/>
<rect x="58" y="72" width="18" height="3" fill="#24272b"/>
<rect x="65" y="52" width="3" height="9" fill="#24272b"/>
</svg>
